<svg width="200" height="120" viewBox="0 0 200 120" fill="none" xmlns="http://www.w3.org/2000/svg">
  <!-- Background circle for square/stacked variant -->
  <defs>
    <linearGradient id="goldGradient" x1="0%" y1="0%" x2="100%" y2="100%">
      <stop offset="0%" style="stop-color:#c9a84a;stop-opacity:1" />
      <stop offset="100%" style="stop-color:#d4b85a;stop-opacity:1" />
    </linearGradient>
  </defs>
  
  <!-- Bottle Icon -->
  <g transform="translate(10, 20)">
    <!-- Bottle silhouette -->
    <path
      d="M25 5C23.8954 5 23 5.89543 23 7V9H19C18.4477 9 18 9.44772 18 10V46C18 48.2091 19.7909 50 22 50H28C30.2091 50 32 48.2091 32 46V10C32 9.44772 31.5523 9 31 9H27V7C27 5.89543 26.1046 5 25 5Z"
      fill="#c9a84a"
    />
    <!-- Bottle neck detail -->
    <rect x="21" y="9" width="8" height="2" fill="#0f5a3c" opacity="0.3" />
    <!-- Cap/stopper -->
    <rect x="23" y="5" width="4" height="2" rx="1" fill="#c9a84a" />
    <!-- Honey drop/leaf accent -->
    <path
      d="M25 15C23 15 21 17 21 19C21 21 23 23 25 25C27 23 29 21 29 19C29 17 27 15 25 15Z"
      fill="#0f5a3c"
    />
    <!-- Decorative line -->
    <path d="M23 31H27" stroke="#0f5a3c" stroke-width="1.5" stroke-linecap="round" />
  </g>
  
  <!-- Text: Sarmad -->
  <text x="70" y="50" font-family="Playfair Display, serif" font-size="36" font-weight="700" fill="#c9a84a" letter-spacing="0.05em">
    Sarmad
  </text>
  
  <!-- Text: Original Products -->
  <text x="70" y="75" font-family="Inter, sans-serif" font-size="11" font-weight="600" fill="#c9a84a" letter-spacing="0.1em" text-transform="uppercase">
    Original Products
  </text>
</svg>

